<?xml version="1.0" encoding="UTF-8" standalone="no"?>
<!-- Created with Inkscape (http://www.inkscape.org/) -->

<svg
   xmlns:dc="http://purl.org/dc/elements/1.1/"
   xmlns:cc="http://creativecommons.org/ns#"
   xmlns:rdf="http://www.w3.org/1999/02/22-rdf-syntax-ns#"
   xmlns:svg="http://www.w3.org/2000/svg"
   xmlns="http://www.w3.org/2000/svg"
   xmlns:sodipodi="http://sodipodi.sourceforge.net/DTD/sodipodi-0.dtd"
   xmlns:inkscape="http://www.inkscape.org/namespaces/inkscape"
   width="1421.87"
   height="1759.8259"
   id="svg3870"
   version="1.1"
   inkscape:version="0.48.0 r9654"
   sodipodi:docname="Nieuw document 4">
  <defs
     id="defs3872" />
  <sodipodi:namedview
     id="base"
     pagecolor="#ffffff"
     bordercolor="#666666"
     borderopacity="1.0"
     inkscape:pageopacity="0.0"
     inkscape:pageshadow="2"
     inkscape:zoom="0.24748737"
     inkscape:cx="1340.9899"
     inkscape:cy="390.01878"
     inkscape:document-units="px"
     inkscape:current-layer="layer1"
     showgrid="false"
     fit-margin-top="0"
     fit-margin-left="0"
     fit-margin-right="0"
     fit-margin-bottom="0"
     inkscape:window-width="1920"
     inkscape:window-height="1028"
     inkscape:window-x="1912"
     inkscape:window-y="-8"
     inkscape:window-maximized="1" />
  <metadata
     id="metadata3875">
    <rdf:RDF>
      <cc:Work
         rdf:about="">
        <dc:format>image/svg+xml</dc:format>
        <dc:type
           rdf:resource="http://purl.org/dc/dcmitype/StillImage" />
        <dc:title></dc:title>
      </cc:Work>
    </rdf:RDF>
  </metadata>
  <g
     inkscape:label="Laag 1"
     inkscape:groupmode="layer"
     id="layer1"
     transform="translate(402.36357,698.97937)">
    <g
       id="g3613"
       transform="matrix(1.25,0,0,-1.25,308.58143,-397.0534)">
      <path
         inkscape:connector-curvature="0"
         d="m 0,0 c -190.07,0 -374.633,-54.262 -533.713,-156.922 l -31.01,-20.017 -2.185,-36.856 c -1.244,-21.094 -1.848,-40.205 -1.848,-58.412 0,-184.615 51.373,-364.629 148.559,-520.58 94.467,-151.582 228.26,-274.836 386.914,-356.42 L 0,-1166.32 l 33.283,17.113 c 158.637,81.584 292.43,204.838 386.897,356.42 97.185,155.951 148.56,335.965 148.56,520.58 0,18.207 -0.605,37.318 -1.849,58.412 l -2.168,36.856 -31.026,20.017 C 374.617,-54.262 190.072,0 0,0 m 0,-72.787 c 182.146,0 351.799,-53.373 494.229,-145.291 1.066,-17.922 1.724,-35.949 1.724,-54.129 0,-353.949 -201.463,-660.824 -495.953,-812.264 -294.508,151.44 -495.969,458.315 -495.969,812.264 0,18.18 0.674,36.207 1.723,54.129 C -351.799,-126.16 -182.145,-72.787 0,-72.787"
         style="fill:#384682;fill-opacity:1;fill-rule:nonzero;stroke:none"
         id="path3615" />
    </g>
    <g
       id="g3617"
       transform="matrix(1.25,0,0,-1.25,929.23573,-127.28838)">
      <path
         inkscape:connector-curvature="0"
         d="m 0,0 c -14.894,9.61 -29.871,19.188 -45.556,27.548 -55.128,29.383 -152.46,71.716 -209.873,86.308 -76.907,19.548 -157.153,31.883 -240.322,31.883 -50.979,0 -100.462,-8.511 -149.686,-12.185 C -798.022,122.168 -971.125,13.15 -991.501,0 c -1.062,-17.977 -1.73,-36.06 -1.73,-54.296 0,-355.041 202.079,-662.862 497.48,-814.768 C -200.35,-717.158 1.729,-409.337 1.729,-54.296 1.729,-36.06 1.062,-17.977 0,0"
         style="fill:#d44e1d;fill-opacity:1;fill-rule:nonzero;stroke:none"
         id="path3619" />
    </g>
    <g
       id="g3621"
       transform="matrix(1.25,0,0,-1.25,108.85483,126.32802)">
      <path
         inkscape:connector-curvature="0"
         d="m 0,0 c -25.004,0 -45.279,-20.258 -45.279,-45.262 0,-25.019 20.275,-45.277 45.279,-45.277 25.002,0 45.279,20.258 45.279,45.277 C 45.279,-20.258 25.002,0 0,0"
         style="fill:#ffffff;fill-opacity:1;fill-rule:nonzero;stroke:none"
         id="path3623" />
    </g>
    <g
       id="g3625"
       transform="matrix(1.25,0,0,-1.25,58.608329,271.66732)">
      <path
         inkscape:connector-curvature="0"
         d="m 0,0 0,-186.588 80.393,0 0,186.588 C 68.523,-6.752 54.822,-10.662 40.197,-10.662 25.59,-10.662 11.889,-6.752 0,0"
         style="fill:#ffffff;fill-opacity:1;fill-rule:nonzero;stroke:none"
         id="path3627" />
    </g>
    <g
       id="g3629"
       transform="matrix(1.25,0,0,-1.25,-295.56397,132.70252)">
      <path
         inkscape:connector-curvature="0"
         d="m 0,0 c 0,0 6.291,-38.873 15.016,-72.309 l 87.199,0 0,-225.451 82.525,0 0,225.451 63.75,0 c -4.246,9.864 -6.627,20.739 -6.627,32.147 0,14.607 3.908,28.291 10.662,40.162 C 252.525,0 0.676,-0.924 0,0"
         style="fill:#ffffff;fill-opacity:1;fill-rule:nonzero;stroke:none"
         id="path3631" />
    </g>
    <path
       inkscape:connector-curvature="0"
       d="m 431.10833,268.82312 c 0,29.255 -22.85625,48.91371 -59.01875,48.91371 l -49.4475,0 0,-98.35996 48.9125,0 c 36.6975,0 59.55375,16.4825 59.55375,48.37875 l 0,1.0675 z m 69.9925,-91.7825 c -6.3525,0 -12.6825,-0.13375 -18.835,-0.37875 -93.6725,-3.855 -158.335,-14.26 -262.75625,-43.95875 l -0.025,0 0,372.19871 103.1575,0 0,-106.3325 51.57875,0 c 91.9825,0 159.5125,-46.27 159.5125,-134.52121 l 0,-1.0675 c 0,-35.2825 -11.30625,-64.30625 -31.60875,-85.96125 -0.335,0 -0.6675,0.0213 -1.02375,0.0213"
       style="fill:#ffffff;fill-opacity:1;fill-rule:nonzero;stroke:none"
       id="path3635" />
    <g
       id="g3637"
       transform="matrix(1.25,0,0,-1.25,720.36373,273.08822)">
      <path
         inkscape:connector-curvature="0"
         d="m 0,0 c -41.688,9.365 -51.906,15.318 -51.906,28.93 l 0,0.853 c 0,11.053 9.791,19.139 29.783,19.139 26.371,0 56.154,-9.774 83.379,-29.34 l 41.262,58.27 C 77.035,98.305 46.949,110.957 10.609,115.453 -23.562,99.859 -68.361,87.527 -113.623,81.309 -127.59,65.385 -135.268,45.109 -135.268,22.123 l 0,-0.852 c 0,-60.828 48.922,-78.687 112.291,-93.152 40.836,-9.791 50.627,-16.172 50.627,-28.93 l 0,-0.853 c 0,-12.76 -11.904,-20.418 -34.455,-20.418 -34.457,0 -66.781,12.35 -96.564,35.736 l -45.936,-54.875 c 36.996,-32.75 86.772,-49.347 139.514,-49.347 72.326,0 120.395,36.162 120.395,96.99 l 0,0.851 C 110.604,-36.998 68.061,-14.873 0,0"
         style="fill:#ffffff;fill-opacity:1;fill-rule:nonzero;stroke:none"
         id="path3639" />
    </g>
    <g
       id="g3641"
       transform="matrix(1.25,0,0,-1.25,617.77333,770.24653)">
      <path
         inkscape:connector-curvature="0"
         d="m 0,0 -509.402,0 -136.477,169.6 782.356,0 L 0,0 z"
         style="fill:#384682;fill-opacity:1;fill-rule:nonzero;stroke:none"
         id="path3643" />
    </g>
    <g
       id="g3645"
       transform="matrix(1.25,0,0,-1.25,-79.943871,603.49353)">
      <path
         inkscape:connector-curvature="0"
         d="m 0,0 48.441,0 0,-17.344 -29.746,0 0,-24.808 28.414,0 0,-17.362 -28.414,0 0,-39.361 L 0,-98.875 0,0 z"
         style="fill:#fcce08;fill-opacity:1;fill-rule:nonzero;stroke:none"
         id="path3647" />
    </g>
    <g
       id="g3649"
       transform="matrix(1.25,0,0,-1.25,-6.3086714,603.49353)">
      <path
         inkscape:connector-curvature="0"
         d="m 0,0 48.834,0 0,-17.344 -30.156,0 0,-22.818 28.822,0 0,-17.219 -28.822,0 0,-24.541 30.156,0 0,-16.953 L 0,-98.875 0,0 z"
         style="fill:#fcce08;fill-opacity:1;fill-rule:nonzero;stroke:none"
         id="path3651" />
    </g>
    <g
       id="g3653"
       transform="matrix(1.25,0,0,-1.25,101.77973,706.74063)">
      <path
         inkscape:connector-curvature="0"
         d="m 0,0 c 12.955,0 13.754,6.539 13.754,32.965 0,26.158 -0.941,32.697 -14.145,32.697 l -7.089,0 L -7.48,0 0,0 z m -26.141,82.598 26.016,0 c 11.605,0 19.619,-2.809 24.541,-7.873 7.748,-7.996 8.424,-22.018 8.424,-41.495 0,-20.541 -0.819,-34.687 -9.1,-42.435 -4.922,-4.674 -12.918,-7.072 -24.256,-7.072 l -25.625,0 0,98.875 z"
         style="fill:#fcce08;fill-opacity:1;fill-rule:nonzero;stroke:none"
         id="path3655" />
    </g>
    <g
       id="g3657"
       transform="matrix(1.25,0,0,-1.25,207.04583,665.69073)">
      <path
         inkscape:connector-curvature="0"
         d="m 0,0 c 0,25.217 -1.189,32.947 -12.688,32.947 -11.46,0 -12.794,-7.73 -12.794,-32.947 0,-25.092 1.334,-32.572 12.794,-32.572 C -1.189,-32.572 0,-25.092 0,0 m -34.953,-42.168 c -8.94,8.529 -9.473,23.207 -9.473,42.701 0,18.944 0.533,33.356 8.672,42.01 4.799,5.082 12.279,8.422 23.066,8.422 10.698,0 18.303,-3.34 22.977,-8.281 8.246,-8.672 8.922,-23.207 8.922,-42.151 0,-19.637 -0.676,-34.314 -9.473,-42.701 -4.797,-4.551 -12.279,-7.607 -22.426,-7.607 -10.253,0 -17.468,3.056 -22.265,7.607"
         style="fill:#fcce08;fill-opacity:1;fill-rule:nonzero;stroke:none"
         id="path3659" />
    </g>
    <g
       id="g3661"
       transform="matrix(1.25,0,0,-1.25,275.75183,662.38023)">
      <path
         inkscape:connector-curvature="0"
         d="m 0,0 c 9.08,0 11.764,4.549 11.764,15.211 0,10.947 -2.684,14.963 -11.889,14.963 l -8.121,0 L -8.246,0 0,0 z m -0.25,-16.793 -7.996,0 0,-34.973 -18.303,0 0,98.875 26.692,0 c 22.408,0 29.763,-9.863 29.763,-30.832 0,-12.812 -3.215,-22.816 -12.953,-28.396 l 12.527,-39.647 -19.068,0 -10.662,34.973 z"
         style="fill:#fcce08;fill-opacity:1;fill-rule:nonzero;stroke:none"
         id="path3663" />
    </g>
    <g
       id="g3665"
       transform="matrix(1.25,0,0,-1.25,367.75623,687.39253)">
      <path
         inkscape:connector-curvature="0"
         d="M 0,0 -5.082,25.217 -7.338,38.152 -9.613,25.217 -14.695,0 0,0 z m -17.627,67.385 21.359,0 22.534,-99.141 -19.334,0 -3.057,14.945 -22.426,0 -3.074,-14.945 -18.27,0 22.268,99.141 z"
         style="fill:#fcce08;fill-opacity:1;fill-rule:nonzero;stroke:none"
         id="path3667" />
    </g>
    <g
       id="g3669"
       transform="matrix(1.25,0,0,-1.25,415.82513,718.40073)">
      <path
         inkscape:connector-curvature="0"
         d="m 0,0 c -7.996,7.729 -9.348,21.484 -9.348,42.559 0,20.543 1.086,33.888 8.832,42.152 4.674,5.207 12.139,8.281 22.676,8.281 8.672,0 13.346,-0.926 18.961,-3.074 L 34.297,72.84 c -2.949,1.209 -7.072,2.008 -11.07,2.008 -11.604,0 -13.631,-5.473 -13.631,-32.68 0,-26.709 2.027,-32.307 13.631,-32.307 4.939,0 7.996,1.084 11.871,2.666 L 41.637,-3.875 C 36.447,-6.008 31.098,-7.607 22.303,-7.607 12.014,-7.607 4.799,-4.674 0,0"
         style="fill:#fcce08;fill-opacity:1;fill-rule:nonzero;stroke:none"
         id="path3671" />
    </g>
    <g
       id="g3673"
       transform="matrix(1.25,0,0,-1.25,527.20213,665.69073)">
      <path
         inkscape:connector-curvature="0"
         d="m 0,0 c 0,25.217 -1.191,32.947 -12.689,32.947 -11.461,0 -12.793,-7.73 -12.793,-32.947 0,-25.092 1.332,-32.572 12.793,-32.572 C -1.191,-32.572 0,-25.092 0,0 m -34.955,-42.168 c -8.938,8.529 -9.471,23.207 -9.471,42.701 0,18.944 0.533,33.356 8.672,42.01 4.797,5.082 12.262,8.422 23.065,8.422 10.699,0 18.304,-3.34 22.978,-8.281 8.244,-8.672 8.92,-23.207 8.92,-42.151 0,-19.637 -0.676,-34.314 -9.471,-42.701 -4.799,-4.551 -12.279,-7.607 -22.427,-7.607 -10.252,0 -17.467,3.056 -22.266,7.607"
         style="fill:#fcce08;fill-opacity:1;fill-rule:nonzero;stroke:none"
         id="path3675" />
    </g>
    <path
       inkscape:connector-curvature="0"
       d="m 585.97623,603.49393 23.3687,0 0,123.5938 -23.3687,0 0,-123.5938 z"
       style="fill:#fcce08;fill-opacity:1;fill-rule:nonzero;stroke:none"
       id="path3677" />
    <g
       id="g3679"
       transform="matrix(1.25,0,0,-1.25,624.87053,603.49353)">
      <path
         inkscape:connector-curvature="0"
         d="m 0,0 19.211,0 16.135,-39.752 5.064,-13.08 0,52.832 17.361,0 0,-98.875 -16.81,0 -18.943,45.51 -4.674,11.871 0,-57.381 L 0,-98.875 0,0 z"
         style="fill:#fcce08;fill-opacity:1;fill-rule:nonzero;stroke:none"
         id="path3681" />
    </g>
    <g
       id="g3683"
       transform="matrix(1.25,0,0,-1.25,577.78063,710.31723)">
      <path
         inkscape:connector-curvature="0"
         d="m 0,0 c 0,-5.027 -4.07,-9.098 -9.1,-9.098 -5.029,0 -9.097,4.071 -9.097,9.098 0,5.029 4.068,9.1 9.097,9.1 C -4.07,9.1 0,5.029 0,0"
         style="fill:#fcce08;fill-opacity:1;fill-rule:nonzero;stroke:none"
         id="path3685" />
    </g>
    <g
       id="g3687"
       transform="matrix(1.25,0,0,-1.25,843.12483,-104.54118)">
      <path
         inkscape:connector-curvature="0"
         d="m 0,0 c -9.863,62.428 -50.602,91.34 -69.002,103.824 -16.22,11.002 -37.543,29.665 -67.12,45.637 -0.633,4.702 -1.261,9.434 -1.874,14.16 -6.574,50.602 -13.807,111.713 -30.227,151.137 -16.429,39.431 -62.427,97.256 -160.341,137.994 -97.915,40.748 -215.538,15.115 -241.163,11.836 0,0 -54.544,-17.744 -61.111,-18.401 -6.574,-0.658 -40.748,4.842 -58.482,-15.976 -17.224,-20.215 -45.587,-117.182 -52.048,-178.841 -25.728,-8.759 -55.371,-21.267 -72.806,-34.429 -21.031,-15.861 -58.482,-36.234 -48.629,-98.003 9.854,-61.77 55.196,-115.649 96.6,-145.219 41.396,-29.571 138.652,-86.746 243.133,-118.289 104.48,-31.534 156.396,-40.739 236.558,-44.026 80.172,-3.287 178.086,23.66 214.879,52.575 C -34.83,-107.109 9.854,-62.426 0,0"
         style="fill:#384682;fill-opacity:1;fill-rule:nonzero;stroke:none"
         id="path3689" />
    </g>
    <g
       id="g3691"
       transform="matrix(1.25,0,0,-1.25,677.22163,60.556417)">
      <path
         inkscape:connector-curvature="0"
         d="m 0,0 c -36.801,-12.492 -66.371,-23.002 -137.338,-34.828 35.258,2.443 105.139,7.223 141.932,22.336 C 41.396,2.621 73.596,34.164 87.395,49.277 50.592,22.338 36.795,12.484 0,0"
         style="fill:#b5c2cd;fill-opacity:1;fill-rule:nonzero;stroke:none"
         id="path3693" />
    </g>
    <g
       id="g3695"
       transform="matrix(1.25,0,0,-1.25,482.54873,-528.3864)">
      <path
         inkscape:connector-curvature="0"
         d="m 0,0 c 36.793,-15.771 85.422,-50.602 95.285,-53.23 9.854,-2.622 19.049,1.314 7.223,3.287 -11.826,1.972 -32.199,19.058 -72.938,43.369 -40.738,24.318 -107.111,57.166 -172.826,76.224 -35.646,10.342 -75.16,19.131 -109.633,25.43 49.596,-14.625 29.463,-9.658 86.639,-28.059 C -109.084,48.629 -36.803,15.771 0,0"
         style="fill:#b5c2cd;fill-opacity:1;fill-rule:nonzero;stroke:none"
         id="path3697" />
    </g>
    <g
       id="g3699"
       transform="matrix(1.25,0,0,-1.25,-206.60647,-281.9679)">
      <path
         inkscape:connector-curvature="0"
         d="M 0,0 C -6.574,-40.748 19.059,-86.746 30.557,-95.285 23.279,-72.992 12.172,-41.521 17.086,4.594 19.699,29.223 34.545,57.709 61.111,75 42.053,66.363 6.566,40.738 0,0"
         style="fill:#b5c2cd;fill-opacity:1;fill-rule:nonzero;stroke:none"
         id="path3701" />
    </g>
    <g
       id="g3703"
       transform="matrix(1.25,0,0,-1.25,44.225929,-234.33118)">
      <path
         inkscape:connector-curvature="0"
         d="m 0,0 c 0,0 0.113,-0.024 0.313,-0.067 -41.889,17.273 -77.394,39.947 -93.891,57.225 -4.719,4.949 -8.459,8.86 -11.516,12.031 0.16,-45.039 2.319,-87.234 2.319,-97.914 0,-16.625 35.63,-53.906 128.8,-79.273 21.904,-5.964 44.314,-11.421 66.955,-16.217 C 54.442,-114.24 13.874,-99.954 0,-89.881 l 117.266,-22.303 c 0,0 -98.375,27.172 -117.266,40.278 l 117.266,-22.561 c 0,0 -95.817,27.651 -117.266,40.535 L 117.266,-76.75 c 0,0 -98.375,26.426 -117.266,40.801 l 117.266,-23.092 c 0,0 -102.073,29.756 -117.266,41.066 L 117.266,-41.324 C 117.266,-41.324 16.047,-16.205 0,0"
         style="fill:#b5c2cd;fill-opacity:1;fill-rule:nonzero;stroke:none"
         id="path3705" />
    </g>
    <g
       id="g3707"
       transform="matrix(1.25,0,0,-1.25,687.54383,-169.47038)">
      <path
         inkscape:connector-curvature="0"
         d="m 0,0 c 0.986,7.988 -4.096,42.516 -9.541,81.992 -3.279,-11.471 -9.18,-23.269 -20.418,-33.398 -22.275,-20.065 -69.66,-30.229 -142.6,-35.479 -13.028,-0.94 -27.075,-1.347 -41.768,-1.347 2.352,-0.226 3.651,-0.35 3.651,-0.35 -20.558,-9.766 -170.691,-3.137 -170.691,-3.137 l 157.551,-15.674 c -18.633,-7.818 -159.551,-1.882 -159.551,-1.882 l 143.619,-16.918 c -17.504,-6.149 -145.156,-0.631 -145.156,-0.631 l 136.777,-18.17 c -16.215,-7.037 -138.43,0.621 -138.43,0.621 l 131.18,-19.432 c -20.338,-5.375 -134.014,1.875 -134.014,1.875 l 126.481,-20.675 c -16.127,-4.521 -62.739,-4.172 -100.038,-0.523 62.338,-9.67 124.616,-13.4 181.194,-7.999 96.59,9.232 131.42,22.756 160.332,51.01 C 7.49,-11.861 -1.234,-9.951 0,0"
         style="fill:#b5c2cd;fill-opacity:1;fill-rule:nonzero;stroke:none"
         id="path3709" />
    </g>
  </g>
</svg>
